<svg xmlns="http://www.w3.org/2000/svg" xmlns:xlink="http://www.w3.org/1999/xlink" contentStyleType="text/css" height="1675px" preserveAspectRatio="none" style="width:1079px;height:1675px;background:#FFFFFF;" version="1.1" viewBox="0 0 1079 1675" width="1079px" zoomAndPan="magnify"><title>SocialCare &#8212; Diagrama de Casos de Uso</title><defs/><g><text fill="#000000" font-family="Segoe UI" font-size="22" font-weight="bold" lengthAdjust="spacing" textLength="414.2939" x="328.2529" y="38.7402">SocialCare &#8212; Diagrama de Casos de Uso</text><!--cluster Sistema SocialCare--><g id="cluster_Sistema SocialCare"><rect fill="#F1F5F9" height="1507" rx="2.5" ry="2.5" style="stroke:#94A3B8;stroke-width:1.0;" width="768" x="160" y="62.2617"/><text fill="#000000" font-family="Segoe UI" font-size="14" font-weight="bold" lengthAdjust="spacing" textLength="123.2588" x="482.3706" y="79.3691">Sistema SocialCare</text></g><!--cluster Autentica??o & Acesso--><g id="cluster_Autentica&#231;&#227;o &amp; Acesso"><path d="M243,107.2617 L394.9307,107.2617 A3.75,3.75 0 0 1 397.4307,109.7617 L404.4307,131.8828 L481,131.8828 A2.5,2.5 0 0 1 483.5,134.3828 L483.5,363.7617 A2.5,2.5 0 0 1 481,366.2617 L243,366.2617 A2.5,2.5 0 0 1 240.5,363.7617 L240.5,109.7617 A2.5,2.5 0 0 1 243,107.2617 " fill="#F1F5F9" style="stroke:#94A3B8;stroke-width:1.0;"/><line style="stroke:#94A3B8;stroke-width:1.0;" x1="240.5" x2="404.4307" y1="131.8828" y2="131.8828"/><text fill="#000000" font-family="Segoe UI" font-size="14" font-weight="bold" lengthAdjust="spacing" textLength="150.9307" x="244.5" y="124.3691">Autentica&#231;&#227;o &amp; Acesso</text></g><!--cluster Cadastro Familiar--><g id="cluster_Cadastro Familiar"><path d="M243,1046.2617 L358.748,1046.2617 A3.75,3.75 0 0 1 361.248,1048.7617 L368.248,1070.8828 L901.5,1070.8828 A2.5,2.5 0 0 1 904,1073.3828 L904,1237.7617 A2.5,2.5 0 0 1 901.5,1240.2617 L243,1240.2617 A2.5,2.5 0 0 1 240.5,1237.7617 L240.5,1048.7617 A2.5,2.5 0 0 1 243,1046.2617 " fill="#F1F5F9" style="stroke:#94A3B8;stroke-width:1.0;"/><line style="stroke:#94A3B8;stroke-width:1.0;" x1="240.5" x2="368.248" y1="1070.8828" y2="1070.8828"/><text fill="#000000" font-family="Segoe UI" font-size="14" font-weight="bold" lengthAdjust="spacing" textLength="114.748" x="244.5" y="1063.3691">Cadastro Familiar</text></g><!--cluster Programas & Benef?cios--><g id="cluster_Programas &amp; Benef&#237;cios"><path d="M221.5,390.2617 L380.4922,390.2617 A3.75,3.75 0 0 1 382.9922,392.7617 L389.9922,414.8828 L502.5,414.8828 A2.5,2.5 0 0 1 505,417.3828 L505,579.7617 A2.5,2.5 0 0 1 502.5,582.2617 L221.5,582.2617 A2.5,2.5 0 0 1 219,579.7617 L219,392.7617 A2.5,2.5 0 0 1 221.5,390.2617 " fill="#F1F5F9" style="stroke:#94A3B8;stroke-width:1.0;"/><line style="stroke:#94A3B8;stroke-width:1.0;" x1="219" x2="389.9922" y1="414.8828" y2="414.8828"/><text fill="#000000" font-family="Segoe UI" font-size="14" font-weight="bold" lengthAdjust="spacing" textLength="157.9922" x="223" y="407.3691">Programas &amp; Benef&#237;cios</text></g><!--cluster Atendimento Social--><g id="cluster_Atendimento Social"><path d="M193,1264.2617 L323.3359,1264.2617 A3.75,3.75 0 0 1 325.8359,1266.7617 L332.8359,1288.8828 L873,1288.8828 A2.5,2.5 0 0 1 875.5,1291.3828 L875.5,1542.7617 A2.5,2.5 0 0 1 873,1545.2617 L193,1545.2617 A2.5,2.5 0 0 1 190.5,1542.7617 L190.5,1266.7617 A2.5,2.5 0 0 1 193,1264.2617 " fill="#F1F5F9" style="stroke:#94A3B8;stroke-width:1.0;"/><line style="stroke:#94A3B8;stroke-width:1.0;" x1="190.5" x2="332.8359" y1="1288.8828" y2="1288.8828"/><text fill="#000000" font-family="Segoe UI" font-size="14" font-weight="bold" lengthAdjust="spacing" textLength="129.3359" x="194.5" y="1281.3691">Atendimento Social</text></g><!--cluster Relat?rios & Indicadores--><g id="cluster_Relat&#243;rios &amp; Indicadores"><path d="M186.5,606.2617 L349.9492,606.2617 A3.75,3.75 0 0 1 352.4492,608.7617 L359.4492,630.8828 L537.5,630.8828 A2.5,2.5 0 0 1 540,633.3828 L540,1019.7617 A2.5,2.5 0 0 1 537.5,1022.2617 L186.5,1022.2617 A2.5,2.5 0 0 1 184,1019.7617 L184,608.7617 A2.5,2.5 0 0 1 186.5,606.2617 " fill="#F1F5F9" style="stroke:#94A3B8;stroke-width:1.0;"/><line style="stroke:#94A3B8;stroke-width:1.0;" x1="184" x2="359.4492" y1="630.8828" y2="630.8828"/><text fill="#000000" font-family="Segoe UI" font-size="14" font-weight="bold" lengthAdjust="spacing" textLength="162.4492" x="188" y="623.3691">Relat&#243;rios &amp; Indicadores</text></g><g id="elem_UC01"><ellipse cx="361.8471" cy="329.4311" fill="#EFF6FF" rx="91.3471" ry="20.6694" style="stroke:#1F6FEB;stroke-width:1.0;"/><text fill="#1E293B" font-family="Segoe UI" font-size="14" lengthAdjust="spacing" textLength="137.4434" x="290.1254" y="334.2348">UC01 &#8212; Autenticar-se</text></g><g id="elem_UC02"><ellipse cx="362.0615" cy="250.274" fill="#EFF6FF" rx="105.5615" ry="23.5123" style="stroke:#1F6FEB;stroke-width:1.0;"/><text fill="#1E293B" font-family="Segoe UI" font-size="14" lengthAdjust="spacing" textLength="170.7754" x="276.6738" y="254.0709">UC02 &#8212; Gerenciar Usu&#225;rios</text></g><g id="elem_UC15"><ellipse cx="361.821" cy="168.2259" fill="#EFF6FF" rx="105.321" ry="23.4642" style="stroke:#1F6FEB;stroke-width:1.0;"/><text fill="#1E293B" font-family="Segoe UI" font-size="14" lengthAdjust="spacing" textLength="170.2354" x="276.7033" y="172.0228">UC15 &#8212; Auditar Opera&#231;&#245;es</text></g><g id="elem_UC03"><ellipse cx="362.1992" cy="1195.4016" fill="#EFF6FF" rx="101.1992" ry="22.6398" style="stroke:#1F6FEB;stroke-width:1.0;"/><text fill="#1E293B" font-family="Segoe UI" font-size="14" lengthAdjust="spacing" textLength="160.8975" x="280.9932" y="1199.4797">UC03 &#8212; Cadastrar Fam&#237;lia</text></g><g id="elem_UC04"><ellipse cx="362.0889" cy="1114.2795" fill="#EFF6FF" rx="105.5889" ry="23.5178" style="stroke:#1F6FEB;stroke-width:1.0;"/><text fill="#1E293B" font-family="Segoe UI" font-size="14" lengthAdjust="spacing" textLength="170.8369" x="276.6705" y="1118.0764">UC04 &#8212; Cadastrar Membro</text></g><g id="elem_UC05"><ellipse cx="765.0075" cy="1110.2632" fill="#EFF6FF" rx="123.0075" ry="27.0015" style="stroke:#1F6FEB;stroke-width:1.0;"/><text fill="#1E293B" font-family="Segoe UI" font-size="14" lengthAdjust="spacing" textLength="209.2207" x="660.3972" y="1114.0601">UC05 &#8212; Buscar Endere&#231;o por CEP</text></g><g id="elem_UC17"><ellipse cx="765.1536" cy="1198.4924" fill="#EFF6FF" rx="116.6536" ry="25.7307" style="stroke:#1F6FEB;stroke-width:1.0;"/><text fill="#1E293B" font-family="Segoe UI" font-size="14" lengthAdjust="spacing" textLength="195.3643" x="667.4715" y="1202.2893">UC17 &#8212; Carregar UF/Munic&#237;pio</text></g><g id="elem_UC06"><ellipse cx="361.9533" cy="538.0524" fill="#EFF6FF" rx="126.9533" ry="27.7907" style="stroke:#1F6FEB;stroke-width:1.0;"/><text fill="#1E293B" font-family="Segoe UI" font-size="14" lengthAdjust="spacing" textLength="217.7588" x="253.074" y="541.8493">UC06 &#8212; Cadastrar Programa Social</text></g><g id="elem_UC07"><ellipse cx="362.1453" cy="451.0908" fill="#EFF6FF" rx="107.1453" ry="23.8291" style="stroke:#1F6FEB;stroke-width:1.0;"/><text fill="#1E293B" font-family="Segoe UI" font-size="14" lengthAdjust="spacing" textLength="174.3232" x="274.9837" y="454.8877">UC07 &#8212; Conceder Benef&#237;cio</text></g><g id="elem_UC08"><ellipse cx="764.9089" cy="1501.0435" fill="#EFF6FF" rx="94.4089" ry="21.2818" style="stroke:#1F6FEB;stroke-width:1.0;"/><text fill="#1E293B" font-family="Segoe UI" font-size="14" lengthAdjust="spacing" textLength="144.9219" x="689.5472" y="1505.8182">UC08 &#8212; Agendar Visita</text></g><g id="elem_UC09"><ellipse cx="361.7882" cy="1507.2194" fill="#EFF6FF" rx="95.2882" ry="21.4576" style="stroke:#1F6FEB;stroke-width:1.0;"/><text fill="#1E293B" font-family="Segoe UI" font-size="14" lengthAdjust="spacing" textLength="147.041" x="285.6696" y="1511.9038">UC09 &#8212; Registrar Visita</text></g><g id="elem_UC10"><ellipse cx="361.7936" cy="1325.2204" fill="#EFF6FF" rx="105.2936" ry="23.4587" style="stroke:#1F6FEB;stroke-width:1.0;"/><text fill="#1E293B" font-family="Segoe UI" font-size="14" lengthAdjust="spacing" textLength="170.1738" x="276.7067" y="1329.0173">UC10 &#8212; Abrir Atendimento</text></g><g id="elem_UC11"><ellipse cx="361.9576" cy="1417.2532" fill="#EFF6FF" rx="155.4576" ry="33.4915" style="stroke:#1F6FEB;stroke-width:1.0;"/><text fill="#1E293B" font-family="Segoe UI" font-size="14" lengthAdjust="spacing" textLength="278.3525" x="222.7813" y="1421.0501">UC11 &#8212; Encaminhar para Institui&#231;&#227;o Parceira</text></g><g id="elem_UC12"><ellipse cx="362.1311" cy="678.0879" fill="#EFF6FF" rx="162.1311" ry="34.8262" style="stroke:#1F6FEB;stroke-width:1.0;"/><text fill="#1E293B" font-family="Segoe UI" font-size="14" lengthAdjust="spacing" textLength="292.3389" x="215.9616" y="681.8848">UC12 &#8212; Relat&#243;rio: Fam&#237;lias por Vulnerabilidade</text></g><g id="elem_UC13"><ellipse cx="362.1061" cy="781.3829" fill="#EFF6FF" rx="151.1061" ry="32.6212" style="stroke:#1F6FEB;stroke-width:1.0;"/><text fill="#1E293B" font-family="Segoe UI" font-size="14" lengthAdjust="spacing" textLength="269.1992" x="227.5065" y="785.1798">UC13 &#8212; Relat&#243;rio: Benef&#237;cios por Programa</text></g><g id="elem_UC14"><ellipse cx="362.0972" cy="879.3812" fill="#EFF6FF" rx="141.0972" ry="30.6194" style="stroke:#1F6FEB;stroke-width:1.0;"/><text fill="#1E293B" font-family="Segoe UI" font-size="14" lengthAdjust="spacing" textLength="248.0283" x="238.083" y="883.178">UC14 &#8212; Relat&#243;rio: Visitas por Assistente</text></g><g id="elem_UC16"><ellipse cx="361.861" cy="975.0339" fill="#EFF6FF" rx="139.361" ry="30.2722" style="stroke:#1F6FEB;stroke-width:1.0;"/><text fill="#1E293B" font-family="Segoe UI" font-size="14" lengthAdjust="spacing" textLength="244.3369" x="239.6925" y="978.8308">UC16 &#8212; Consultar Indicadores P&#250;blicos</text></g><!--entity ADM--><g id="elem_ADM"><ellipse cx="62.0132" cy="219.2617" fill="#F8FAFC" rx="8" ry="8" style="stroke:#1E293B;stroke-width:1.0;"/><path d="M62.0132,227.2617 L62.0132,254.2617 M49.0132,235.2617 L75.0132,235.2617 M62.0132,254.2617 L49.0132,269.2617 M62.0132,254.2617 L75.0132,269.2617 " fill="none" style="stroke:#1E293B;stroke-width:1.0;"/><text fill="#000000" font-family="Segoe UI" font-size="14" lengthAdjust="spacing" textLength="88.0264" x="18" y="286.3691">Administrador</text></g><!--entity GES--><g id="elem_GES"><ellipse cx="61.8403" cy="579.2617" fill="#F8FAFC" rx="8" ry="8" style="stroke:#1E293B;stroke-width:1.0;"/><path d="M61.8403,587.2617 L61.8403,614.2617 M48.8403,595.2617 L74.8403,595.2617 M61.8403,614.2617 L48.8403,629.2617 M61.8403,614.2617 L74.8403,629.2617 " fill="none" style="stroke:#1E293B;stroke-width:1.0;"/><text fill="#000000" font-family="Segoe UI" font-size="14" lengthAdjust="spacing" textLength="40.6807" x="41.5" y="646.3691">Gestor</text></g><!--entity ASS--><g id="elem_ASS"><ellipse cx="62.0713" cy="1294.2617" fill="#F8FAFC" rx="8" ry="8" style="stroke:#1E293B;stroke-width:1.0;"/><path d="M62.0713,1302.2617 L62.0713,1329.2617 M49.0713,1310.2617 L75.0713,1310.2617 M62.0713,1329.2617 L49.0713,1344.2617 M62.0713,1329.2617 L75.0713,1344.2617 " fill="none" style="stroke:#1E293B;stroke-width:1.0;"/><text fill="#000000" font-family="Segoe UI" font-size="14" lengthAdjust="spacing" textLength="102.1426" x="11" y="1361.3691">Assistente Social</text></g><!--entity VIACEP--><g id="elem_VIACEP"><ellipse cx="1051.3999" cy="1065.2617" fill="#F8FAFC" rx="8" ry="8" style="stroke:#1E293B;stroke-width:1.0;"/><path d="M1051.3999,1073.2617 L1051.3999,1100.2617 M1038.3999,1081.2617 L1064.3999,1081.2617 M1051.3999,1100.2617 L1038.3999,1115.2617 M1051.3999,1100.2617 L1064.3999,1115.2617 " fill="none" style="stroke:#1E293B;stroke-width:1.0;"/><text fill="#000000" font-family="Segoe UI" font-size="14" lengthAdjust="spacing" textLength="42.7998" x="1030" y="1132.3691">ViaCEP</text></g><!--entity IBGE--><g id="elem_IBGE"><ellipse cx="1051.7188" cy="1180.2617" fill="#F8FAFC" rx="8" ry="8" style="stroke:#1E293B;stroke-width:1.0;"/><path d="M1051.7188,1188.2617 L1051.7188,1215.2617 M1038.7188,1196.2617 L1064.7188,1196.2617 M1051.7188,1215.2617 L1038.7188,1230.2617 M1051.7188,1215.2617 L1064.7188,1230.2617 " fill="none" style="stroke:#1E293B;stroke-width:1.0;"/><text fill="#000000" font-family="Segoe UI" font-size="14" lengthAdjust="spacing" textLength="28.4375" x="1037.5" y="1247.3691">IBGE</text></g><!--entity PARC--><g id="elem_PARC"><ellipse cx="61.978" cy="944.2617" fill="#F8FAFC" rx="8" ry="8" style="stroke:#1E293B;stroke-width:1.0;"/><path d="M61.978,952.2617 L61.978,979.2617 M48.978,960.2617 L74.978,960.2617 M61.978,979.2617 L48.978,994.2617 M61.978,979.2617 L74.978,994.2617 " fill="none" style="stroke:#1E293B;stroke-width:1.0;"/><text fill="#000000" font-family="Segoe UI" font-size="14" lengthAdjust="spacing" textLength="74.9561" x="24.5" y="1011.3691">Parceiro / BI</text></g><!--link ADM to UC01--><g id="link_ADM_UC01"><path d="M106.04,272.7417 C120.36,279.4917 136.59,286.3917 152,291.2617 C193.68,304.4117 235.6184,312.6287 275.0284,318.6287 " fill="none" id="ADM-to-UC01" style="stroke:#1F6FEB;stroke-width:1.0;"/><polygon fill="#1F6FEB" points="280.96,319.5317,272.6646,314.2227,276.017,318.7792,271.4605,322.1316,280.96,319.5317" style="stroke:#1F6FEB;stroke-width:1.0;"/></g><!--link ADM to UC02--><g id="link_ADM_UC02"><path d="M106.01,250.2617 C145.18,250.2617 198.61,250.2617 250.24,250.2617 " fill="none" id="ADM-to-UC02" style="stroke:#1F6FEB;stroke-width:1.0;"/><polygon fill="#1F6FEB" points="256.24,250.2617,247.24,246.2617,251.24,250.2617,247.24,254.2617,256.24,250.2617" style="stroke:#1F6FEB;stroke-width:1.0;"/></g><!--link ADM to UC15--><g id="link_ADM_UC15"><path d="M106.08,227.9017 C120.4,221.1617 136.62,214.2317 152,209.2617 C190.79,196.7217 229.0191,188.4021 266.7091,181.8321 " fill="none" id="ADM-to-UC15" style="stroke:#1F6FEB;stroke-width:1.0;"/><polygon fill="#1F6FEB" points="272.62,180.8017,263.0668,178.4067,267.6943,181.6604,264.4406,186.2878,272.62,180.8017" style="stroke:#1F6FEB;stroke-width:1.0;"/></g><!--link GES to UC01--><g id="link_GES_UC01"><path d="M71.31,570.2517 C82.48,525.8617 106.41,454.7617 152,411.2617 C190.21,374.7917 240.7117,355.4663 285.2617,343.9263 " fill="none" id="GES-to-UC01" style="stroke:#1F6FEB;stroke-width:1.0;"/><polygon fill="#1F6FEB" points="291.07,342.4217,281.3545,340.8063,286.2298,343.6755,283.3606,348.5507,291.07,342.4217" style="stroke:#1F6FEB;stroke-width:1.0;"/></g><!--link GES to UC06--><g id="link_GES_UC06"><path d="M82.55,605.5317 C121.07,596.2317 203.0077,576.4304 269.7877,560.3004 " fill="none" id="GES-to-UC06" style="stroke:#1F6FEB;stroke-width:1.0;"/><polygon fill="#1F6FEB" points="275.62,558.8917,265.9324,557.1166,270.7598,560.0657,267.8107,564.893,275.62,558.8917" style="stroke:#1F6FEB;stroke-width:1.0;"/></g><!--link GES to UC07--><g id="link_GES_UC07"><path d="M82.5,571.2717 C97.78,544.8217 121.55,511.3117 152,492.2617 C183.27,472.6917 215.9727,463.0831 251.4827,457.5031 " fill="none" id="GES-to-UC07" style="stroke:#1F6FEB;stroke-width:1.0;"/><polygon fill="#1F6FEB" points="257.41,456.5717,247.8982,454.0173,252.4706,457.3479,249.14,461.9203,257.41,456.5717" style="stroke:#1F6FEB;stroke-width:1.0;"/></g><!--link GES to UC12--><g id="link_GES_UC12"><path d="M82.55,614.7217 C116.28,622.4217 181.9204,637.3967 244.0104,651.5667 " fill="none" id="GES-to-UC12" style="stroke:#1F6FEB;stroke-width:1.0;"/><polygon fill="#1F6FEB" points="249.86,652.9017,241.9756,646.9995,244.9853,651.7892,240.1956,654.799,249.86,652.9017" style="stroke:#1F6FEB;stroke-width:1.0;"/></g><!--link GES to UC13--><g id="link_GES_UC13"><path d="M82.62,649.4717 C97.96,676.1717 121.75,710.1717 152,730.2617 C175.88,746.1117 198.4365,755.4811 226.4265,763.0211 " fill="none" id="GES-to-UC13" style="stroke:#1F6FEB;stroke-width:1.0;"/><polygon fill="#1F6FEB" points="232.22,764.5817,224.5702,758.3784,227.3921,763.2812,222.4893,766.103,232.22,764.5817" style="stroke:#1F6FEB;stroke-width:1.0;"/></g><!--link GES to UC14--><g id="link_GES_UC14"><path d="M67.91,650.6717 C76.2,700.6917 97.74,784.9217 152,831.2617 C173.73,849.8117 195.4088,860.0301 223.2488,867.3801 " fill="none" id="GES-to-UC14" style="stroke:#1F6FEB;stroke-width:1.0;"/><polygon fill="#1F6FEB" points="229.05,868.9117,221.3692,862.7469,224.2156,867.6354,219.3271,870.4818,229.05,868.9117" style="stroke:#1F6FEB;stroke-width:1.0;"/></g><!--link ASS to UC01--><g id="link_ASS_UC01"><path d="M71.23,1285.1717 C82.47,1228.9117 102.41,1123.2417 113,1032.2617 C120.99,963.5817 111.28,467.1317 152,411.2617 C182.13,369.9117 230.4436,350.7167 276.0836,340.5467 " fill="none" id="ASS-to-UC01" style="stroke:#1F6FEB;stroke-width:1.0;"/><polygon fill="#1F6FEB" points="281.94,339.2417,272.2855,337.2949,277.0597,340.3292,274.0254,345.1034,281.94,339.2417" style="stroke:#1F6FEB;stroke-width:1.0;"/></g><!--link ASS to UC03--><g id="link_ASS_UC03"><path d="M113.3,1302.4817 C125.92,1296.8217 139.44,1290.7817 152,1285.2617 C207.51,1260.8317 266.0714,1235.6964 308.4914,1217.5964 " fill="none" id="ASS-to-UC03" style="stroke:#1F6FEB;stroke-width:1.0;"/><polygon fill="#1F6FEB" points="314.01,1215.2417,304.1622,1215.0947,309.4111,1217.204,307.3019,1222.4529,314.01,1215.2417" style="stroke:#1F6FEB;stroke-width:1.0;"/></g><!--link ASS to UC04--><g id="link_ASS_UC04"><path d="M73.14,1284.9217 C85.2,1245.5717 109.28,1187.1417 152,1155.2617 C181.93,1132.9217 214.8426,1122.6961 250.9026,1117.4461 " fill="none" id="ASS-to-UC04" style="stroke:#1F6FEB;stroke-width:1.0;"/><polygon fill="#1F6FEB" points="256.84,1116.5817,247.3576,1113.9201,251.8922,1117.3021,248.5102,1121.8366,256.84,1116.5817" style="stroke:#1F6FEB;stroke-width:1.0;"/></g><!--link ASS to UC08--><g id="link_ASS_UC08"><path d="M66.08,1365.4617 C72.45,1417.3517 92.01,1505.7517 152,1546.2617 C332.99,1668.4917 611.0507,1568.4783 716.8507,1522.8383 " fill="none" id="ASS-to-UC08" style="stroke:#1F6FEB;stroke-width:1.0;"/><polygon fill="#1F6FEB" points="722.36,1520.4617,712.5117,1520.3538,717.769,1522.4422,715.6805,1527.6994,722.36,1520.4617" style="stroke:#1F6FEB;stroke-width:1.0;"/></g><!--link ASS to UC09--><g id="link_ASS_UC09"><path d="M77.37,1365.4517 C91.29,1398.3717 115.66,1443.4317 152,1468.2617 C185.3,1491.0017 222.2808,1500.7429 260.5708,1505.2329 " fill="none" id="ASS-to-UC09" style="stroke:#1F6FEB;stroke-width:1.0;"/><polygon fill="#1F6FEB" points="266.53,1505.9317,258.0571,1500.9108,261.564,1505.3494,257.1254,1508.8563,266.53,1505.9317" style="stroke:#1F6FEB;stroke-width:1.0;"/></g><!--link ASS to UC10--><g id="link_ASS_UC10"><path d="M113.21,1325.2617 C152.28,1325.2617 201.83,1325.2617 250.44,1325.2617 " fill="none" id="ASS-to-UC10" style="stroke:#1F6FEB;stroke-width:1.0;"/><polygon fill="#1F6FEB" points="256.44,1325.2617,247.44,1321.2617,251.44,1325.2617,247.44,1329.2617,256.44,1325.2617" style="stroke:#1F6FEB;stroke-width:1.0;"/></g><!--link ASS to UC11--><g id="link_ASS_UC11"><path d="M113.14,1350.3917 C125.64,1356.0917 139.15,1361.7817 152,1366.2617 C183.03,1377.0817 211.5979,1385.0823 243.3779,1392.7623 " fill="none" id="ASS-to-UC11" style="stroke:#1F6FEB;stroke-width:1.0;"/><polygon fill="#1F6FEB" points="249.21,1394.1717,241.4014,1388.1695,244.3499,1392.9972,239.5222,1395.9457,249.21,1394.1717" style="stroke:#1F6FEB;stroke-width:1.0;"/></g><!--link PARC to UC16--><g id="link_PARC_UC16"><path d="M99.54,975.2617 C130.55,975.2617 171.09,975.2617 216.35,975.2617 " fill="none" id="PARC-to-UC16" style="stroke:#1F6FEB;stroke-width:1.0;"/><polygon fill="#1F6FEB" points="222.35,975.2617,213.35,971.2617,217.35,975.2617,213.35,979.2617,222.35,975.2617" style="stroke:#1F6FEB;stroke-width:1.0;"/></g><!--link UC05 to VIACEP--><g id="link_UC05_VIACEP"><path d="M885.42,1104.3817 C940.16,1101.6917 993.5472,1099.0553 1023.9672,1097.5653 " fill="none" id="UC05-to-VIACEP" style="stroke:#1F6FEB;stroke-width:1.0;stroke-dasharray:7.0,7.0;"/><polygon fill="#1F6FEB" points="1029.96,1097.2717,1020.7751,1093.7168,1024.966,1097.5163,1021.1665,1101.7072,1029.96,1097.2717" style="stroke:#1F6FEB;stroke-width:1.0;"/><text fill="#000000" font-family="Segoe UI" font-size="13" lengthAdjust="spacing" textLength="54.6216" x="945" y="1095.29">&#171;include&#187;</text></g><!--link UC17 to IBGE--><g id="link_UC17_IBGE"><path d="M879.26,1203.4317 C940.31,1206.2217 1002.8163,1209.0766 1031.1363,1210.3766 " fill="none" id="UC17-to-IBGE" style="stroke:#1F6FEB;stroke-width:1.0;stroke-dasharray:7.0,7.0;"/><polygon fill="#1F6FEB" points="1037.13,1210.6517,1028.3229,1206.2432,1032.1353,1210.4224,1027.956,1214.2348,1037.13,1210.6517" style="stroke:#1F6FEB;stroke-width:1.0;"/><text fill="#000000" font-family="Segoe UI" font-size="13" lengthAdjust="spacing" textLength="54.6216" x="945" y="1203.29">&#171;include&#187;</text></g><!--link UC03 to UC05--><g id="link_UC03_UC05"><path d="M436.08,1179.7717 C503.63,1165.4517 598.2405,1145.3963 670.1605,1130.1463 " fill="none" id="UC03-to-UC05" style="stroke:#1F6FEB;stroke-width:1.0;stroke-dasharray:7.0,7.0;"/><polygon fill="#1F6FEB" points="676.03,1128.9017,666.396,1126.8556,671.1387,1129.9389,668.0555,1134.6816,676.03,1128.9017" style="stroke:#1F6FEB;stroke-width:1.0;"/><text fill="#000000" font-family="Segoe UI" font-size="13" lengthAdjust="spacing" textLength="54.6216" x="557" y="1139.29">&#171;include&#187;</text></g><!--link UC03 to UC17--><g id="link_UC03_UC17"><path d="M463.15,1196.0117 C519.41,1196.4317 583.8602,1196.9067 642.4502,1197.3467 " fill="none" id="UC03-to-UC17" style="stroke:#1F6FEB;stroke-width:1.0;stroke-dasharray:7.0,7.0;"/><polygon fill="#1F6FEB" points="648.45,1197.3917,639.4803,1193.3242,643.4501,1197.3542,639.4202,1201.324,648.45,1197.3917" style="stroke:#1F6FEB;stroke-width:1.0;"/><text fill="#000000" font-family="Segoe UI" font-size="13" lengthAdjust="spacing" textLength="54.6216" x="557" y="1193.29">&#171;include&#187;</text></g><!--link UC09 to UC08--><g id="link_UC09_UC08"><path d="M457.52,1505.8417 C521.78,1504.8817 600.4107,1503.7007 664.4607,1502.7507 " fill="none" id="UC09-to-UC08" style="stroke:#1F6FEB;stroke-width:1.0;stroke-dasharray:7.0,7.0;"/><polygon fill="#1F6FEB" points="670.46,1502.6617,661.4017,1498.7956,665.4605,1502.7359,661.5203,1506.7948,670.46,1502.6617" style="stroke:#1F6FEB;stroke-width:1.0;"/><text fill="#000000" font-family="Segoe UI" font-size="13" lengthAdjust="spacing" textLength="52.1333" x="558" y="1499.29">&#171;extend&#187;</text></g><!--SRC=[VLR1RkCs4BthArWjiDqzP3Uo7SSE5W5inmfyI6l4IEwqD568bKc3fB05YWNw4Vs1eeSzvLJqqgl-f5-oGr9IA35PNv8ntxmPpZpE-2Vz20SWnv8o7cccIo0xaJ5QhgW4ylyVVv8hHWj93vJaG5PK2MN-kLCYYjHdneyKpyYUPfyBAIgUhqGf97cJse-7K8yq5ryOByW3BHLu9mifnPV6BKcdwNhf7sPQoAMGESWMiXxDno4aI62MBjAL1xjJa545VQvXk1OqP5kdY4n3O2guVYsl8vBGeXzmFbcCbxCNG47wINgMpZtW5JpGgjGcu2yK6nRle13OXqqSHIKyQA85aQnur2Hd4ZBD18yYQaf3uaL-O9mfBR45CYRcGnLPNDsqW6jGkZrfFWYuNkyw1gNG7xXkrH5RXbq7k6TqjTuE6Uut2_osnMoMr-iUmcBCjorYIsK6J0hoaImtNQBRnUqgYiobA2zAStMJ2mhoMQWn-JsAI5jDpBSooRACrj_glmLvYo81fOI16TBATO_4TwlJn8gySv0d2eRNCAZ0RsJzha42nomaAgAg_v9CgBZdE1ew9cTDm9nfTFlr2D9a-IzqZiupEKFFhxrRhMXEiOk2fFJ0IWpwqdt6bhw1OW34ray8xhEVZWF7oS3n1WvxAU918IQ1dxlFib9OFBBcA7Qelmbon8OwIJZ7iw0Gvqr0AQ4m1Km_tbISPVNJaRcmhWxdGHssKjY9fB2nI-3mK3zbjl1XDQQ3IxMklemDB71iaXCy0xoH5sPGnp2x1IefPmUKa-YYX8dDd0eAn69QzqoX6WQFOr3vMS0njnotK31tkH-nE8vvq8HJbyTUCacypEDNEPBJWCCzeJNFK9Ry4HCn8ujikC9zKZ7t19kdJPkA9qbGjriegQx_CKy8-xh1J38ph-2blYQZvkgjoqMdSsMLTr-L71_M7fz9JdDeeuQlSHmGUOgoLAraOhy8mVD99W6HQuSZUHwWlV6G1CyfcRR2KpZkiPPU8SYs_czViknvndGyKrjEBEZFvEJan8GpodDpvOBq5e01H3ZyyU-b6ssUCV8Cd40lqxbrONbmHpppUCRKDyuz0rlW6MFVcBoM_N3vk1lilCYUCVQDYM_CV6Fk6IXfpqXUIQEtdCWx1GT2UslclStBRAkMQjfHQTi_-4s3vAYhTygjCFjR2h-pnCeHs95AFdouRDOdkI2VFZ6UbLKEbvUH7Ppss6nE5C3m63U0FNOyFpWsFE7nlFEUDSScQvxZwNS0]--></g></svg>